<svg xmlns="http://www.w3.org/2000/svg" xmlns:xlink="http://www.w3.org/1999/xlink" version="1.1" width="3214.285714285714" height="2423.919488925679" viewBox="0 0 3214.285714285714 2423.919488925679">
			
			<g transform="scale(10.714285714285714) translate(10, 10)">
				<defs id="SvgjsDefs3612"/><g id="SvgjsG3613" featureKey="mugSzh-0" transform="matrix(0.7149901390075684,0,0,0.7149901390075684,68,0)" fill="#00c1c1"><path xmlns="http://www.w3.org/2000/svg" d="M101.4,0C45.4,0,0,45.4,0,101.4c0,56,45.4,101.4,101.4,101.4c56,0,101.4-45.4,101.4-101.4C202.8,45.4,157.4,0,101.4,0z     M27.2,53.2l4.1,4.1v25.9L18.6,70.4C20.8,64.3,23.8,58.6,27.2,53.2z M101.4,189.8c-48.8,0-88.4-39.6-88.4-88.4    c0-9.1,1.4-17.9,3.9-26.1l14.5,14.5v28.5h0l-0.1,0.1l23.2,23.2c-3.6,5.2-3.1,12.4,1.5,17c5.2,5.2,13.6,5.2,18.8,0    c5.2-5.2,5.2-13.6,0-18.8c-4.6-4.6-11.8-5.1-17-1.5L36,116.5v-22l15.4,15.4c-3.6,5.2-3.1,12.4,1.5,17c5.2,5.2,13.6,5.2,18.8,0    s5.2-13.6,0-18.8c-4.6-4.6-11.8-5.1-17-1.5L36,87.9l0-32.4l0,0l-6.1-6.1c2.1-2.9,4.4-5.6,6.8-8.2L54,58.3l0,20.6h0L53.9,79l41,41    c-3.6,5.2-3.1,12.4,1.5,17c5.2,5.2,13.6,5.2,18.8,0c5.2-5.2,5.2-13.6,0-18.8c-4.6-4.6-11.8-5.1-17-1.5L58.6,77.1l0-20.6l0,0    L40,37.8c1.3-1.2,2.6-2.4,4-3.6l92.4,92.4c-3.6,5.2-3.1,12.4,1.5,17c5.3,5.3,14,5.2,19.2-0.4c4.8-5.2,4.6-13.4-0.3-18.4    c-4.6-4.7-11.9-5.2-17.1-1.5L47.6,31.2c1.4-1.1,2.9-2.2,4.5-3.2l31.7,31.7v0h0l0,0l0,0h20.5l14,14c-3.6,5.2-3.1,12.4,1.5,17    c5.2,5.2,13.6,5.2,18.8,0c5.2-5.2,5.2-13.6,0-18.8c-4.6-4.6-11.8-5.1-17-1.5l-15.4-15.4l0,0H85.7L56,25.5    c8.9-5.3,18.9-9.2,29.5-11.1l17.9,17.9c-3.6,5.2-3.1,12.4,1.5,17c5.2,5.2,13.6,5.2,18.8,0c5.2-5.2,5.2-13.6,0-18.8    c-4.6-4.6-11.8-5.1-17-1.5L91.2,13.6c3.3-0.4,6.7-0.6,10.2-0.6c48.8,0,88.4,39.6,88.4,88.4S150.2,189.8,101.4,189.8z M59.3,143    c3.4-3.4,8.9-3.4,12.3,0c3.4,3.4,3.4,8.9,0,12.3c-3.4,3.4-8.9,3.4-12.3,0C55.9,151.9,55.9,146.4,59.3,143z M56.2,111.3    c3.4-3.4,8.9-3.4,12.3,0c3.4,3.4,3.4,8.9,0,12.3c-3.4,3.4-8.9,3.4-12.3,0C52.8,120.3,52.8,114.7,56.2,111.3z M99.6,121.4    c3.4-3.4,8.9-3.4,12.3,0c3.4,3.4,3.4,8.9,0,12.3c-3.4,3.4-8.9,3.4-12.3,0C96.3,130.3,96.3,124.8,99.6,121.4z M141.1,128.1    c3.4-3.4,8.9-3.4,12.3,0c3.4,3.4,3.4,8.9,0,12.3c-3.4,3.4-8.9,3.4-12.3,0C137.7,137,137.7,131.5,141.1,128.1z M123.1,75.3    c3.4-3.4,8.9-3.4,12.3,0c3.4,3.4,3.4,8.9,0,12.3c-3.4,3.4-8.9,3.4-12.3,0C119.7,84.2,119.7,78.7,123.1,75.3z M108.1,33.7    c3.4-3.4,8.9-3.4,12.3,0c3.4,3.4,3.4,8.9,0,12.3c-3.4,3.4-8.9,3.4-12.3,0C104.7,42.7,104.7,37.1,108.1,33.7z"/></g><g id="SvgjsG3614" featureKey="PPkF4s-0" transform="matrix(2.8011202812194824,0,0,2.8011202812194824,-3.80952159020812,149.59383589842068)" fill="#19bfb7"><path d="M1.36 5.82 c0.62666 -0.08 1.2534 -0.14334 1.88 -0.19 s1.3 -0.07 2.02 -0.07 c2.5066 0 4.4134 0.61 5.72 1.83 s1.96 3.09 1.96 5.61 c0 2.5066 -0.66666 4.3366 -2 5.49 s-3.3066 1.73 -5.92 1.73 c-0.64 0 -1.2533 -0.02 -1.84 -0.06 s-1.1933 -0.1 -1.82 -0.18 l0 -14.16 z M4.64 17.3 c0.65334 0.06666 1.2734 0.06664 1.86 -0.000019531 s1.1033 -0.25332 1.55 -0.55998 s0.8 -0.76332 1.06 -1.37 s0.39 -1.4167 0.39 -2.43 c0 -0.89334 -0.10334 -1.6267 -0.31 -2.2 s-0.48666 -1.03 -0.84 -1.37 s-0.76 -0.57666 -1.22 -0.71 s-0.94334 -0.2 -1.45 -0.2 l-0.49 0 l-0.55 0.04 l0 8.8 z M20.22 15.42 c-0.13334 -0.02666 -0.2733 -0.04338 -0.41996 -0.050038 s-0.27332 -0.01 -0.37998 -0.01 c-0.56 0 -1.0133 0.08666 -1.36 0.26 s-0.52 0.47334 -0.52 0.9 c0 0.26666 0.06334 0.47666 0.19 0.63 s0.28332 0.26668 0.46998 0.34002 s0.38332 0.11668 0.58998 0.13002 s0.38332 0.02 0.52998 0.02 c0.26666 0 0.56666 -0.03334 0.9 -0.1 l0 -2.12 z M19.18 13.219999999999999 c0.10666 0 0.24996 0.0033594 0.42996 0.01002 s0.38334 0.01666 0.61 0.03 c-0.01334 -0.52 -0.19668 -0.85666 -0.55002 -1.01 s-0.81 -0.23 -1.37 -0.23 c-0.30666 0 -0.66 0.03666 -1.06 0.11 s-0.83334 0.18334 -1.3 0.33 l-0.32 -1.1 c-0.04 -0.14666 -0.09666 -0.36 -0.17 -0.64 s-0.12334 -0.5 -0.15 -0.66 c0.66666 -0.22666 1.2967 -0.39 1.89 -0.49 s1.13 -0.15 1.61 -0.15 c1.4133 0 2.5066 0.33666 3.28 1.01 s1.16 1.75 1.16 3.23 l0 5.86 c-0.52 0.14666 -1.12 0.29 -1.8 0.43 s-1.4133 0.21 -2.2 0.21 c-0.69334 0 -1.3233 -0.06 -1.89 -0.18 s-1.0533 -0.32 -1.46 -0.6 s-0.72 -0.64666 -0.94 -1.1 s-0.33 -1.0067 -0.33 -1.66 s0.13666 -1.2 0.41 -1.64 s0.62668 -0.79 1.06 -1.05 s0.92 -0.44334 1.46 -0.55 s1.0833 -0.16 1.63 -0.16 z M25.5 12.059999999999999 l-1.24 0 l0 -2.52 l1.24 0 l0 -2.84 l3 0 l0 2.84 l2.48 0 l-1.4 2.52 l-1.18 0 l0.1 0.64 l0 3.14 c0 0.34666 0.02334 0.62666 0.07 0.84 s0.12 0.38 0.22 0.5 s0.22666 0.20334 0.38 0.25 s0.33 0.07 0.53 0.07 c0.14666 0 0.32666 -0.01666 0.54 -0.05 s0.44 -0.07 0.68 -0.11 l0.16 1.34 l0.12 1.2 c-0.38666 0.08 -0.74 0.14 -1.06 0.18 s-0.64666 0.06 -0.98 0.06 c-1.24 0 -2.16 -0.28666 -2.76 -0.86 s-0.9 -1.52 -0.9 -2.84 l0 -4.36 z M37.66 15.42 c-0.13334 -0.02666 -0.2733 -0.04338 -0.41996 -0.050038 s-0.27332 -0.01 -0.37998 -0.01 c-0.56 0 -1.0133 0.08666 -1.36 0.26 s-0.52 0.47334 -0.52 0.9 c0 0.26666 0.06334 0.47666 0.19 0.63 s0.28332 0.26668 0.46998 0.34002 s0.38332 0.11668 0.58998 0.13002 s0.38332 0.02 0.52998 0.02 c0.26666 0 0.56666 -0.03334 0.9 -0.1 l0 -2.12 z M36.62 13.219999999999999 c0.10666 0 0.24996 0.0033594 0.42996 0.01002 s0.38334 0.01666 0.61 0.03 c-0.01334 -0.52 -0.19668 -0.85666 -0.55002 -1.01 s-0.81 -0.23 -1.37 -0.23 c-0.30666 0 -0.66 0.03666 -1.06 0.11 s-0.83334 0.18334 -1.3 0.33 l-0.32 -1.1 c-0.04 -0.14666 -0.09666 -0.36 -0.17 -0.64 s-0.12334 -0.5 -0.15 -0.66 c0.66666 -0.22666 1.2967 -0.39 1.89 -0.49 s1.13 -0.15 1.61 -0.15 c1.4133 0 2.5066 0.33666 3.28 1.01 s1.16 1.75 1.16 3.23 l0 5.86 c-0.52 0.14666 -1.12 0.29 -1.8 0.43 s-1.4133 0.21 -2.2 0.21 c-0.69334 0 -1.3233 -0.06 -1.89 -0.18 s-1.0533 -0.32 -1.46 -0.6 s-0.72 -0.64666 -0.94 -1.1 s-0.33 -1.0067 -0.33 -1.66 s0.13666 -1.2 0.41 -1.64 s0.62668 -0.79 1.06 -1.05 s0.92 -0.44334 1.46 -0.55 s1.0833 -0.16 1.63 -0.16 z M45.3 13.620000000000001 c-0.42666 -0.17334 -0.82332 -0.36666 -1.19 -0.58 s-0.68332 -0.47 -0.94998 -0.77 s-0.47332 -0.65334 -0.61998 -1.06 s-0.22 -0.89 -0.22 -1.45 c0 -0.69334 0.12 -1.3033 0.36 -1.83 s0.57666 -0.97 1.01 -1.33 s0.95668 -0.63334 1.57 -0.82 s1.2933 -0.28 2.04 -0.28 c0.61334 0 1.24 0.06334 1.88 0.19 s1.4067 0.34332 2.3 0.64998 l-1.36 2.44 c-0.86666 -0.41334 -1.78 -0.62 -2.74 -0.62 c-0.18666 0 -0.38 0.02 -0.58 0.06 s-0.38 0.11 -0.54 0.21 s-0.29334 0.23666 -0.4 0.41 s-0.16 0.4 -0.16 0.68 c0 0.22666 0.04334 0.41332 0.13 0.55998 s0.19666 0.27332 0.33 0.37998 s0.28668 0.19666 0.46002 0.27 s0.34668 0.14334 0.52002 0.21 l1.18 0.46 c0.50666 0.2 0.97 0.41 1.39 0.63 s0.77666 0.48666 1.07 0.8 s0.52 0.69668 0.68 1.15 s0.24 1.02 0.24 1.7 s-0.12334 1.3 -0.37 1.86 s-0.60666 1.0367 -1.08 1.43 s-1.0567 0.7 -1.75 0.92 s-1.4867 0.33 -2.38 0.33 c-0.41334 0 -0.79334 -0.01334 -1.14 -0.04 s-0.68332 -0.07332 -1.01 -0.13998 s-0.65332 -0.14666 -0.97998 -0.24 s-0.67666 -0.21334 -1.05 -0.36 l0.68 -2.8 c0.54666 0.14666 1.0833 0.27666 1.61 0.39 s1.0633 0.17 1.61 0.17 c0.73334 0 1.2933 -0.09666 1.68 -0.29 s0.61332 -0.56334 0.67998 -1.11 c0.02666 -0.28 -0.0066796 -0.51334 -0.10002 -0.7 s-0.22668 -0.34332 -0.40002 -0.46998 s-0.36668 -0.23 -0.58002 -0.31 l-0.64 -0.24 z M57.980000000000004 9.44 c0.69334 0 1.34 0.09668 1.94 0.29002 s1.1167 0.50334 1.55 0.93 s0.77334 0.98 1.02 1.66 s0.37 1.5 0.37 2.46 s-0.12334 1.78 -0.37 2.46 s-0.58666 1.2333 -1.02 1.66 s-0.95 0.73666 -1.55 0.93 s-1.2467 0.29 -1.94 0.29 c-0.70666 0 -1.3567 -0.09666 -1.95 -0.29 s-1.1067 -0.50334 -1.54 -0.93 s-0.77334 -0.98 -1.02 -1.66 s-0.37 -1.5 -0.37 -2.46 c0 -0.94666 0.12334 -1.7567 0.37 -2.43 s0.58666 -1.2267 1.02 -1.66 s0.94668 -0.75 1.54 -0.95 s1.2433 -0.3 1.95 -0.3 z M57.980000000000004 17.5 c0.6 0 1.07 -0.2 1.41 -0.6 s0.51 -1.1067 0.51 -2.12 s-0.17 -1.7233 -0.51 -2.13 s-0.81 -0.61 -1.41 -0.61 c-0.58666 0 -1.0567 0.21 -1.41 0.63 s-0.53 1.1233 -0.53 2.11 c0 1.0133 0.17334 1.72 0.52 2.12 s0.82 0.6 1.42 0.6 z M64.66 9.56 l3.04 -0.000039062 l0 5.44 c0 0.46666 0.04 0.85666 0.12 1.17 s0.2 0.56 0.36 0.74 s0.35666 0.30666 0.59 0.38 s0.51 0.11 0.83 0.11 c0.38666 0 0.73332 -0.02 1.04 -0.06 l-0.04 -0.36 l0 -7.42 l3.04 0 l0 9.88 c-0.49334 0.17334 -1.0833 0.32668 -1.77 0.46002 s-1.39 0.2 -2.11 0.2 c-0.68 0 -1.33 -0.05334 -1.95 -0.16 s-1.1633 -0.33332 -1.63 -0.67998 s-0.83666 -0.85 -1.11 -1.51 s-0.41 -1.55 -0.41 -2.67 l0 -5.52 z M79.48 9.92 c0.16 -0.10666 0.38332 -0.21 0.66998 -0.31 s0.61 -0.15 0.97 -0.15 c0.30666 0 0.55666 0.01334 0.75 0.04 s0.29 0.03332 0.29 0.01998 l0 2.66 c-0.30666 -0.02666 -0.60666 -0.03332 -0.9 -0.01998 c-0.25334 0.02666 -0.51668 0.07 -0.79002 0.13 s-0.52334 0.17 -0.75 0.33 c-0.26666 0.18666 -0.45666 0.44 -0.57 0.76 s-0.17 0.76 -0.17 1.32 l0 5.32 l-3 0 l0 -7.94 l-1.62 0 l1.28 -2.54 l3.34 0 l0 0.78 c0.06666 -0.05334 0.12666 -0.10668 0.18 -0.16002 c0.05334 -0.04 0.10668 -0.08334 0.16002 -0.13 s0.10668 -0.08332 0.16002 -0.10998 z M91.80000000000001 18.88 c-0.53334 0.42666 -1.1067 0.74334 -1.72 0.95 s-1.24 0.31 -1.88 0.31 c-0.69334 0 -1.3467 -0.09334 -1.96 -0.28 s-1.15 -0.49 -1.61 -0.91 s-0.82334 -0.96666 -1.09 -1.64 s-0.4 -1.49 -0.4 -2.45 c0 -0.94666 0.13334 -1.7567 0.4 -2.43 s0.63 -1.2267 1.09 -1.66 s0.99666 -0.75334 1.61 -0.96 s1.2667 -0.31 1.96 -0.31 c0.42666 0 0.89332 0.06 1.4 0.18 s1.0133 0.3 1.52 0.54 l-1.32 2.16 c-0.22666 -0.10666 -0.49332 -0.18332 -0.79998 -0.22998 s-0.57332 -0.07 -0.79998 -0.07 c-0.61334 0 -1.1233 0.21666 -1.53 0.65 s-0.61 1.1433 -0.61 2.13 c0 0.50666 0.05334 0.92 0.16 1.24 s0.25666 0.58 0.45 0.78 s0.42 0.34666 0.68 0.44 s0.54334 0.15334 0.85 0.18 c0.41334 0.04 0.82334 0.0066602 1.23 -0.1 s0.77 -0.28 1.09 -0.52 z M96.9 9.44 c0.69334 0 1.3166 0.096622 1.87 0.28996 s1.0167 0.50668 1.39 0.94002 s0.66 0.99 0.86 1.67 s0.3 1.5 0.3 2.46 l0 0.31 l-0.04 0.63 l-5.6 0 l-0.42 -0.06 c0.01334 0.38666 0.05668 0.69666 0.13002 0.93 s0.18 0.41668 0.32 0.55002 s0.31 0.22668 0.51 0.28002 s0.42666 0.08668 0.68 0.10002 c0.41334 0.02666 0.77 -0.03334 1.07 -0.18 s0.58334 -0.44666 0.85 -0.9 c0.41334 0.13334 0.79334 0.26 1.14 0.38 c0.29334 0.10666 0.56 0.2 0.8 0.28 s0.36 0.11334 0.36 0.1 c-0.48 1 -1.0633 1.73 -1.75 2.19 s-1.51 0.69 -2.47 0.69 c-0.70666 0 -1.3467 -0.09334 -1.92 -0.28 s-1.06 -0.49 -1.46 -0.91 s-0.71 -0.96666 -0.93 -1.64 s-0.33 -1.4967 -0.33 -2.47 c0 -0.94666 0.11 -1.7567 0.33 -2.43 s0.53 -1.2267 0.93 -1.66 s0.88666 -0.75334 1.46 -0.96 s1.2133 -0.31 1.92 -0.31 z M98.00000000000001 13.440000000000001 l0.30004 0.04 c-0.02666 -0.46666 -0.15 -0.83 -0.37 -1.09 s-0.56334 -0.39 -1.03 -0.39 c-0.53334 0 -0.91668 0.13 -1.15 0.39 s-0.37668 0.62334 -0.43002 1.09 c0.06666 -0.01334 0.12666 -0.02334 0.18 -0.03 s0.11334 -0.01 0.18 -0.01 l2.32 0 z"/></g>
			</g>
		</svg>